<svg width="851" height="65" viewBox="0 0 851 65" fill="none" xmlns="http://www.w3.org/2000/svg">
<path d="M769.391 42.2744H770.961V47.0166H776.93V42.2744H778.5V53.751H776.93V48.3838H770.961V53.751H769.391V42.2744ZM780.727 45.4229H782.156V53.751H780.727V45.4229ZM780.727 42.2744H782.156V43.8682H780.727V42.2744ZM787.242 45.2354C787.898 45.2354 788.471 45.3968 788.961 45.7197C789.227 45.902 789.497 46.1676 789.773 46.5166V45.4619H791.07V53.0713C791.07 54.1338 790.914 54.9723 790.602 55.5869C790.018 56.7223 788.917 57.29 787.297 57.29C786.396 57.29 785.638 57.0869 785.023 56.6807C784.409 56.2796 784.065 55.6494 783.992 54.79H785.422C785.49 55.165 785.625 55.4541 785.828 55.6572C786.146 55.9697 786.646 56.126 787.328 56.126C788.406 56.126 789.112 55.7458 789.445 54.9854C789.643 54.5374 789.734 53.738 789.719 52.5869C789.438 53.014 789.099 53.3317 788.703 53.54C788.307 53.7484 787.784 53.8525 787.133 53.8525C786.227 53.8525 785.432 53.5322 784.75 52.8916C784.073 52.2458 783.734 51.1807 783.734 49.6963C783.734 48.2952 784.076 47.2015 784.758 46.415C785.445 45.6286 786.273 45.2354 787.242 45.2354ZM789.773 49.5322C789.773 48.4958 789.56 47.7275 789.133 47.2275C788.706 46.7275 788.161 46.4775 787.5 46.4775C786.51 46.4775 785.833 46.9411 785.469 47.8682C785.276 48.363 785.18 49.0114 785.18 49.8135C785.18 50.7562 785.37 51.4749 785.75 51.9697C786.135 52.4593 786.651 52.7041 787.297 52.7041C788.307 52.7041 789.018 52.2484 789.43 51.3369C789.659 50.8213 789.773 50.2197 789.773 49.5322ZM793.195 42.2354H794.602V46.5166C794.935 46.0947 795.234 45.7979 795.5 45.626C795.953 45.3291 796.518 45.1807 797.195 45.1807C798.409 45.1807 799.232 45.6051 799.664 46.4541C799.898 46.9176 800.016 47.5609 800.016 48.3838V53.751H798.57V48.4775C798.57 47.863 798.492 47.4124 798.336 47.126C798.081 46.6676 797.602 46.4385 796.898 46.4385C796.315 46.4385 795.786 46.639 795.312 47.04C794.839 47.4411 794.602 48.1989 794.602 49.3135V53.751H793.195V42.2354ZM806.594 45.3838H807.93V46.8291C808.039 46.5479 808.307 46.2067 808.734 45.8057C809.161 45.3994 809.654 45.1963 810.211 45.1963C810.237 45.1963 810.281 45.1989 810.344 45.2041C810.406 45.2093 810.513 45.2197 810.664 45.2354V46.7197C810.581 46.7041 810.503 46.6937 810.43 46.6885C810.362 46.6833 810.286 46.6807 810.203 46.6807C809.495 46.6807 808.951 46.9098 808.57 47.3682C808.19 47.8213 808 48.3447 808 48.9385V53.751H806.594V45.3838ZM811.883 45.4229H813.312V53.751H811.883V45.4229ZM811.883 42.2744H813.312V43.8682H811.883V42.2744ZM816.281 51.126C816.323 51.5947 816.44 51.9541 816.633 52.2041C816.987 52.6572 817.602 52.8838 818.477 52.8838C818.997 52.8838 819.456 52.7718 819.852 52.5479C820.247 52.3187 820.445 51.9671 820.445 51.4932C820.445 51.1338 820.286 50.8604 819.969 50.6729C819.766 50.5583 819.365 50.4255 818.766 50.2744L817.648 49.9932C816.935 49.8161 816.409 49.6182 816.07 49.3994C815.466 49.0192 815.164 48.4932 815.164 47.8213C815.164 47.0296 815.448 46.389 816.016 45.8994C816.589 45.4098 817.357 45.165 818.32 45.165C819.581 45.165 820.49 45.5348 821.047 46.2744C821.396 46.7432 821.565 47.2484 821.555 47.79H820.227C820.201 47.4723 820.089 47.1833 819.891 46.9229C819.568 46.5531 819.008 46.3682 818.211 46.3682C817.68 46.3682 817.276 46.4697 817 46.6729C816.729 46.876 816.594 47.1442 816.594 47.4775C816.594 47.8421 816.773 48.1338 817.133 48.3525C817.341 48.4827 817.648 48.5973 818.055 48.6963L818.984 48.9229C819.995 49.1676 820.672 49.4046 821.016 49.6338C821.562 49.9932 821.836 50.5583 821.836 51.3291C821.836 52.0739 821.552 52.7171 820.984 53.2588C820.422 53.8005 819.562 54.0713 818.406 54.0713C817.161 54.0713 816.279 53.79 815.758 53.2275C815.242 52.6598 814.966 51.9593 814.93 51.126H816.281ZM823.414 42.2744H824.766V48.9385L828.375 45.3838H830.172L826.969 48.5166L830.352 53.751H828.555L825.945 49.5322L824.766 50.6104V53.751H823.414V42.2744Z" fill="#646464"/>
<path d="M841.595 56.1797L849.247 48.5188L841.595 40.8579" stroke="#646464" stroke-width="2"/>
<path d="M24.6562 42.2744H26.2109V52.3838H32.0234V53.751H24.6562V42.2744ZM36.6953 52.8447C37.6276 52.8447 38.2656 52.4932 38.6094 51.79C38.9583 51.0817 39.1328 50.2952 39.1328 49.4307C39.1328 48.6494 39.0078 48.014 38.7578 47.5244C38.362 46.7536 37.6797 46.3682 36.7109 46.3682C35.8516 46.3682 35.2266 46.6963 34.8359 47.3525C34.4453 48.0088 34.25 48.8005 34.25 49.7275C34.25 50.6182 34.4453 51.3604 34.8359 51.9541C35.2266 52.5479 35.8464 52.8447 36.6953 52.8447ZM36.75 45.1416C37.8281 45.1416 38.7396 45.501 39.4844 46.2197C40.2292 46.9385 40.6016 47.9958 40.6016 49.3916C40.6016 50.7406 40.2734 51.8551 39.6172 52.7354C38.9609 53.6156 37.9427 54.0557 36.5625 54.0557C35.4115 54.0557 34.4974 53.6676 33.8203 52.8916C33.1432 52.1104 32.8047 51.0635 32.8047 49.751C32.8047 48.3447 33.1615 47.2249 33.875 46.3916C34.5885 45.5583 35.5469 45.1416 36.75 45.1416ZM42.9297 45.3838L44.5391 51.9775L46.1719 45.3838H47.75L49.3906 51.9385L51.1016 45.3838H52.5078L50.0781 53.751H48.6172L46.9141 47.2744L45.2656 53.751H43.8047L41.3906 45.3838H42.9297ZM58.3359 45.3838H59.6719V46.8291C59.7812 46.5479 60.0495 46.2067 60.4766 45.8057C60.9036 45.3994 61.3958 45.1963 61.9531 45.1963C61.9792 45.1963 62.0234 45.1989 62.0859 45.2041C62.1484 45.2093 62.2552 45.2197 62.4062 45.2354V46.7197C62.3229 46.7041 62.2448 46.6937 62.1719 46.6885C62.1042 46.6833 62.0286 46.6807 61.9453 46.6807C61.237 46.6807 60.6927 46.9098 60.3125 47.3682C59.9323 47.8213 59.7422 48.3447 59.7422 48.9385V53.751H58.3359V45.3838ZM63.625 45.4229H65.0547V53.751H63.625V45.4229ZM63.625 42.2744H65.0547V43.8682H63.625V42.2744ZM68.0234 51.126C68.0651 51.5947 68.1823 51.9541 68.375 52.2041C68.7292 52.6572 69.3438 52.8838 70.2188 52.8838C70.7396 52.8838 71.1979 52.7718 71.5938 52.5479C71.9896 52.3187 72.1875 51.9671 72.1875 51.4932C72.1875 51.1338 72.0286 50.8604 71.7109 50.6729C71.5078 50.5583 71.1068 50.4255 70.5078 50.2744L69.3906 49.9932C68.6771 49.8161 68.151 49.6182 67.8125 49.3994C67.2083 49.0192 66.9062 48.4932 66.9062 47.8213C66.9062 47.0296 67.1901 46.389 67.7578 45.8994C68.3307 45.4098 69.099 45.165 70.0625 45.165C71.3229 45.165 72.2318 45.5348 72.7891 46.2744C73.138 46.7432 73.3073 47.2484 73.2969 47.79H71.9688C71.9427 47.4723 71.8307 47.1833 71.6328 46.9229C71.3099 46.5531 70.75 46.3682 69.9531 46.3682C69.4219 46.3682 69.0182 46.4697 68.7422 46.6729C68.4714 46.876 68.3359 47.1442 68.3359 47.4775C68.3359 47.8421 68.5156 48.1338 68.875 48.3525C69.0833 48.4827 69.3906 48.5973 69.7969 48.6963L70.7266 48.9229C71.737 49.1676 72.4141 49.4046 72.7578 49.6338C73.3047 49.9932 73.5781 50.5583 73.5781 51.3291C73.5781 52.0739 73.2943 52.7171 72.7266 53.2588C72.1641 53.8005 71.3047 54.0713 70.1484 54.0713C68.9036 54.0713 68.0208 53.79 67.5 53.2275C66.9844 52.6598 66.7083 51.9593 66.6719 51.126H68.0234ZM75.1562 42.2744H76.5078V48.9385L80.1172 45.3838H81.9141L78.7109 48.5166L82.0938 53.751H80.2969L77.6875 49.5322L76.5078 50.6104V53.751H75.1562V42.2744Z" fill="#646464"/>
<path d="M12.7256 39.8369L5.07326 47.4978L12.7256 55.1587" stroke="#646464" stroke-width="2"/>
<path d="M1 5C1 2.23858 3.23858 0 6 0H120V32H6C3.23858 32 1 29.7614 1 27V5Z" fill="#F4F2F2"/>
<rect x="123" width="118" height="32" fill="#F4F2F2"/>
<rect x="244" width="119" height="32" fill="#1D70B8"/>
<rect x="366" width="119" height="32" fill="#F4F2F2"/>
<rect x="488" width="119" height="32" fill="#F4F2F2"/>
<rect x="610" width="118" height="32" fill="#F4F2F2"/>
<path d="M731 0H845C847.761 0 850 2.23858 850 5V27C850 29.7614 847.761 32 845 32H731V0Z" fill="#F4F2F2"/>
<path d="M62.7734 16.3613L61.0312 11.291L59.1797 16.3613H62.7734ZM60.2188 9.58789H61.9766L66.1406 21.0645H64.4375L63.2734 17.627H58.7344L57.4922 21.0645H55.8984L60.2188 9.58789Z" fill="black"/>
<path d="M182.695 14.4395C183.352 14.4395 183.862 14.3483 184.227 14.166C184.799 13.8796 185.086 13.3639 185.086 12.6191C185.086 11.8691 184.781 11.3639 184.172 11.1035C183.828 10.9577 183.318 10.8848 182.641 10.8848H179.867V14.4395H182.695ZM183.219 19.7363C184.172 19.7363 184.852 19.4603 185.258 18.9082C185.513 18.5592 185.641 18.1374 185.641 17.6426C185.641 16.8092 185.268 16.2415 184.523 15.9395C184.128 15.778 183.604 15.6973 182.953 15.6973H179.867V19.7363H183.219ZM178.344 9.58789H183.273C184.617 9.58789 185.573 9.98893 186.141 10.791C186.474 11.265 186.641 11.8118 186.641 12.4316C186.641 13.1556 186.435 13.7493 186.023 14.2129C185.81 14.4577 185.503 14.6816 185.102 14.8848C185.69 15.1087 186.13 15.3613 186.422 15.6426C186.938 16.1426 187.195 16.8327 187.195 17.7129C187.195 18.4525 186.964 19.1217 186.5 19.7207C185.807 20.6165 184.706 21.0645 183.195 21.0645H178.344V9.58789Z" fill="black"/>
<path d="M307.562 20.2051C306.703 20.9915 305.604 21.3848 304.266 21.3848C302.609 21.3848 301.307 20.8535 300.359 19.791C299.411 18.7233 298.938 17.2598 298.938 15.4004C298.938 13.39 299.477 11.8405 300.555 10.752C301.492 9.80404 302.685 9.33008 304.133 9.33008C306.07 9.33008 307.487 9.96549 308.383 11.2363C308.878 11.9499 309.143 12.666 309.18 13.3848H306.773C306.617 12.8327 306.417 12.416 306.172 12.1348C305.734 11.6348 305.086 11.3848 304.227 11.3848C303.352 11.3848 302.661 11.7389 302.156 12.4473C301.651 13.1504 301.398 14.1478 301.398 15.4395C301.398 16.7311 301.664 17.6999 302.195 18.3457C302.732 18.9863 303.411 19.3066 304.234 19.3066C305.078 19.3066 305.721 19.0306 306.164 18.4785C306.409 18.1816 306.612 17.7363 306.773 17.1426H309.156C308.948 18.3978 308.417 19.4186 307.562 20.2051Z" fill="white"/>
<path d="M425.344 19.7363C425.87 19.7363 426.302 19.6816 426.641 19.5723C427.245 19.3691 427.74 18.9785 428.125 18.4004C428.432 17.9368 428.654 17.3431 428.789 16.6191C428.867 16.1868 428.906 15.7858 428.906 15.416C428.906 13.9941 428.622 12.89 428.055 12.1035C427.492 11.3171 426.583 10.9238 425.328 10.9238H422.57V19.7363H425.344ZM421.008 9.58789H425.656C427.234 9.58789 428.458 10.1478 429.328 11.2676C430.104 12.278 430.492 13.5723 430.492 15.1504C430.492 16.3691 430.263 17.4707 429.805 18.4551C428.997 20.1947 427.609 21.0645 425.641 21.0645H421.008V9.58789Z" fill="black"/>
<path d="M543.031 9.58789H551.398V10.9941H544.547V14.4785H550.883V15.8066H544.547V19.6973H551.516V21.0645H543.031V9.58789Z" fill="black"/>
<path d="M664.977 9.58789H672.938V10.9941H666.531V14.4785H672.164V15.8457H666.531V21.0645H664.977V9.58789Z" fill="black"/>
<path d="M789.953 9.29102C791.031 9.29102 791.964 9.49935 792.75 9.91602C793.891 10.515 794.589 11.5645 794.844 13.0645H793.305C793.117 12.2259 792.729 11.6165 792.141 11.2363C791.552 10.8509 790.81 10.6582 789.914 10.6582C788.852 10.6582 787.956 11.0566 787.227 11.8535C786.503 12.6504 786.141 13.8379 786.141 15.416C786.141 16.7806 786.44 17.8926 787.039 18.752C787.638 19.6061 788.615 20.0332 789.969 20.0332C791.005 20.0332 791.862 19.7337 792.539 19.1348C793.221 18.5306 793.57 17.5566 793.586 16.2129H789.992V14.9238H795.031V21.0645H794.031L793.656 19.5879C793.13 20.166 792.664 20.5671 792.258 20.791C791.576 21.1764 790.708 21.3691 789.656 21.3691C788.297 21.3691 787.128 20.929 786.148 20.0488C785.081 18.9447 784.547 17.429 784.547 15.502C784.547 13.5801 785.068 12.0514 786.109 10.916C787.099 9.83268 788.38 9.29102 789.953 9.29102Z" fill="black"/>
</svg>
